# MagicaVoxel @ Ephtracy

# group
o 

# material
mtllib corridor_point_centrum.mtl
usemtl palette

# normals
vn -1 0 0
vn 1 0 0
vn 0 0 1
vn 0 0 -1
vn 0 -1 0
vn 0 1 0

# texcoords
vt 0.970703 0.5
vt 0.974609 0.5
vt 0.978516 0.5

# verts
v -3.2 0 3.2
v -3.2 0 -3.2
v -3.2 0.1 3.2
v -3.2 0.1 -3.1
v -3.2 0.2 3.2
v -3.2 0.2 -3.1
v -3.2 0.2 -3.2
v -2.9 0.1 2.9
v -2.9 0.1 1.4
v -2.9 0.1 0.9
v -2.9 0.1 0.0999999
v -2.9 0.1 0
v -2.9 0.1 -0.8
v -2.9 0.1 -1.3
v -2.9 0.1 -2.8
v -2.9 0.2 2.9
v -2.9 0.2 1.4
v -2.9 0.2 0.9
v -2.9 0.2 0.0999999
v -2.9 0.2 0
v -2.9 0.2 -0.8
v -2.9 0.2 -1.3
v -2.9 0.2 -2.8
v -1.3 0.1 3
v -1.3 0.1 1.3
v -1.3 0.1 1
v -1.3 0.1 -0.9
v -1.3 0.1 -1.2
v -1.3 0.1 -2.9
v -1.3 0.2 3
v -1.3 0.2 1.3
v -1.3 0.2 1
v -1.3 0.2 -0.9
v -1.3 0.2 -1.2
v -1.3 0.2 -2.9
v -0.9 0.1 2.9
v -0.9 0.1 1.4
v -0.9 0.1 0.9
v -0.9 0.1 -0.8
v -0.9 0.1 -1.3
v -0.9 0.1 -2.8
v -0.9 0.2 2.9
v -0.9 0.2 1.4
v -0.9 0.2 0.9
v -0.9 0.2 -0.8
v -0.9 0.2 -1.3
v -0.9 0.2 -2.8
v 0 0.1 2.9
v 0 0.1 1.4
v 0 0.1 -1.3
v 0 0.1 -2.8
v 0 0.2 2.9
v 0 0.2 1.4
v 0 0.2 -1.3
v 0 0.2 -2.8
v 0.9 0.1 3
v 0.9 0.1 1.3
v 0.9 0.1 1
v 0.9 0.1 -0.9
v 0.9 0.1 -1.2
v 0.9 0.1 -2.9
v 0.9 0.2 3
v 0.9 0.2 1.3
v 0.9 0.2 1
v 0.9 0.2 -0.9
v 0.9 0.2 -1.2
v 0.9 0.2 -2.9
v 1.3 0.1 2.9
v 1.3 0.1 1.4
v 1.3 0.1 0.9
v 1.3 0.1 0.0999999
v 1.3 0.1 0
v 1.3 0.1 -0.8
v 1.3 0.1 -1.3
v 1.3 0.1 -2.8
v 1.3 0.2 2.9
v 1.3 0.2 1.4
v 1.3 0.2 0.9
v 1.3 0.2 0.0999999
v 1.3 0.2 0
v 1.3 0.2 -0.8
v 1.3 0.2 -1.3
v 1.3 0.2 -2.8
v 2.9 0.1 3
v 2.9 0.1 1.3
v 2.9 0.1 1
v 2.9 0.1 -0.9
v 2.9 0.1 -1.2
v 2.9 0.1 -2.9
v 2.9 0.2 3
v 2.9 0.2 1.3
v 2.9 0.2 1
v 2.9 0.2 -0.9
v 2.9 0.2 -1.2
v 2.9 0.2 -2.9
v -3 0.1 3
v -3 0.1 1.3
v -3 0.1 1
v -3 0.1 -0.9
v -3 0.1 -1.2
v -3 0.1 -2.9
v -3 0.2 3
v -3 0.2 1.3
v -3 0.2 1
v -3 0.2 -0.9
v -3 0.2 -1.2
v -3 0.2 -2.9
v -1.4 0.1 2.9
v -1.4 0.1 1.4
v -1.4 0.1 0.9
v -1.4 0.1 0.0999999
v -1.4 0.1 0
v -1.4 0.1 -0.8
v -1.4 0.1 -1.3
v -1.4 0.1 -2.8
v -1.4 0.2 2.9
v -1.4 0.2 1.4
v -1.4 0.2 0.9
v -1.4 0.2 0.0999999
v -1.4 0.2 0
v -1.4 0.2 -0.8
v -1.4 0.2 -1.3
v -1.4 0.2 -2.8
v -1 0.1 3
v -1 0.1 1.3
v -1 0.1 1
v -1 0.1 -0.9
v -1 0.1 -1.2
v -1 0.1 -2.9
v -1 0.2 3
v -1 0.2 1.3
v -1 0.2 1
v -1 0.2 -0.9
v -1 0.2 -1.2
v -1 0.2 -2.9
v -0.0999999 0.1 2.9
v -0.0999999 0.1 1.4
v -0.0999999 0.1 -1.3
v -0.0999999 0.1 -2.8
v -0.0999999 0.2 2.9
v -0.0999999 0.2 1.4
v -0.0999999 0.2 -1.3
v -0.0999999 0.2 -2.8
v 0.8 0.1 2.9
v 0.8 0.1 1.4
v 0.8 0.1 0.9
v 0.8 0.1 -0.8
v 0.8 0.1 -1.3
v 0.8 0.1 -2.8
v 0.8 0.2 2.9
v 0.8 0.2 1.4
v 0.8 0.2 0.9
v 0.8 0.2 -0.8
v 0.8 0.2 -1.3
v 0.8 0.2 -2.8
v 1.2 0.1 3
v 1.2 0.1 1.3
v 1.2 0.1 1
v 1.2 0.1 -0.9
v 1.2 0.1 -1.2
v 1.2 0.1 -2.9
v 1.2 0.2 3
v 1.2 0.2 1.3
v 1.2 0.2 1
v 1.2 0.2 -0.9
v 1.2 0.2 -1.2
v 1.2 0.2 -2.9
v 2.8 0.1 2.9
v 2.8 0.1 1.4
v 2.8 0.1 0.9
v 2.8 0.1 0.0999999
v 2.8 0.1 0
v 2.8 0.1 -0.8
v 2.8 0.1 -1.3
v 2.8 0.1 -2.8
v 2.8 0.2 2.9
v 2.8 0.2 1.4
v 2.8 0.2 0.9
v 2.8 0.2 0.0999999
v 2.8 0.2 0
v 2.8 0.2 -0.8
v 2.8 0.2 -1.3
v 2.8 0.2 -2.8
v 3.2 0 3.2
v 3.2 0 -3.2
v 3.2 0.2 3.2
v 3.2 0.2 -3.2
v -3.2 0 3.2
v -3.2 0.1 3.2
v -3.2 0.2 3.2
v 3.1 0.1 3.2
v 3.1 0.2 3.2
v 3.2 0 3.2
v 3.2 0.2 3.2
v -2.9 0.1 2.9
v -2.9 0.2 2.9
v -1.4 0.1 2.9
v -1.4 0.2 2.9
v -0.9 0.1 2.9
v -0.9 0.2 2.9
v -0.0999999 0.1 2.9
v -0.0999999 0.2 2.9
v 0 0.1 2.9
v 0 0.2 2.9
v 0.8 0.1 2.9
v 0.8 0.2 2.9
v 1.3 0.1 2.9
v 1.3 0.2 2.9
v 2.8 0.1 2.9
v 2.8 0.2 2.9
v -3 0.1 1.3
v -3 0.2 1.3
v -1.3 0.1 1.3
v -1.3 0.2 1.3
v -1 0.1 1.3
v -1 0.2 1.3
v 0.9 0.1 1.3
v 0.9 0.2 1.3
v 1.2 0.1 1.3
v 1.2 0.2 1.3
v 2.9 0.1 1.3
v 2.9 0.2 1.3
v -2.9 0.1 0.9
v -2.9 0.2 0.9
v -1.4 0.1 0.9
v -1.4 0.2 0.9
v -0.9 0.1 0.9
v -0.9 0.2 0.9
v 0.8 0.1 0.9
v 0.8 0.2 0.9
v 1.3 0.1 0.9
v 1.3 0.2 0.9
v 2.8 0.1 0.9
v 2.8 0.2 0.9
v -2.9 0.1 0
v -2.9 0.2 0
v -1.4 0.1 0
v -1.4 0.2 0
v 1.3 0.1 0
v 1.3 0.2 0
v 2.8 0.1 0
v 2.8 0.2 0
v -3 0.1 -0.9
v -3 0.2 -0.9
v -1.3 0.1 -0.9
v -1.3 0.2 -0.9
v -1 0.1 -0.9
v -1 0.2 -0.9
v 0.9 0.1 -0.9
v 0.9 0.2 -0.9
v 1.2 0.1 -0.9
v 1.2 0.2 -0.9
v 2.9 0.1 -0.9
v 2.9 0.2 -0.9
v -2.9 0.1 -1.3
v -2.9 0.2 -1.3
v -1.4 0.1 -1.3
v -1.4 0.2 -1.3
v -0.9 0.1 -1.3
v -0.9 0.2 -1.3
v -0.0999999 0.1 -1.3
v -0.0999999 0.2 -1.3
v 0 0.1 -1.3
v 0 0.2 -1.3
v 0.8 0.1 -1.3
v 0.8 0.2 -1.3
v 1.3 0.1 -1.3
v 1.3 0.2 -1.3
v 2.8 0.1 -1.3
v 2.8 0.2 -1.3
v -3 0.1 -2.9
v -3 0.2 -2.9
v -1.3 0.1 -2.9
v -1.3 0.2 -2.9
v -1 0.1 -2.9
v -1 0.2 -2.9
v 0.9 0.1 -2.9
v 0.9 0.2 -2.9
v 1.2 0.1 -2.9
v 1.2 0.2 -2.9
v 2.9 0.1 -2.9
v 2.9 0.2 -2.9
v -3 0.1 3
v -3 0.2 3
v -1.3 0.1 3
v -1.3 0.2 3
v -1 0.1 3
v -1 0.2 3
v 0.9 0.1 3
v 0.9 0.2 3
v 1.2 0.1 3
v 1.2 0.2 3
v 2.9 0.1 3
v 2.9 0.2 3
v -2.9 0.1 1.4
v -2.9 0.2 1.4
v -1.4 0.1 1.4
v -1.4 0.2 1.4
v -0.9 0.1 1.4
v -0.9 0.2 1.4
v -0.0999999 0.1 1.4
v -0.0999999 0.2 1.4
v 0 0.1 1.4
v 0 0.2 1.4
v 0.8 0.1 1.4
v 0.8 0.2 1.4
v 1.3 0.1 1.4
v 1.3 0.2 1.4
v 2.8 0.1 1.4
v 2.8 0.2 1.4
v -3 0.1 1
v -3 0.2 1
v -1.3 0.1 1
v -1.3 0.2 1
v -1 0.1 1
v -1 0.2 1
v 0.9 0.1 1
v 0.9 0.2 1
v 1.2 0.1 1
v 1.2 0.2 1
v 2.9 0.1 1
v 2.9 0.2 1
v -2.9 0.1 0.0999999
v -2.9 0.2 0.0999999
v -1.4 0.1 0.0999999
v -1.4 0.2 0.0999999
v 1.3 0.1 0.0999999
v 1.3 0.2 0.0999999
v 2.8 0.1 0.0999999
v 2.8 0.2 0.0999999
v -2.9 0.1 -0.8
v -2.9 0.2 -0.8
v -1.4 0.1 -0.8
v -1.4 0.2 -0.8
v -0.9 0.1 -0.8
v -0.9 0.2 -0.8
v 0.8 0.1 -0.8
v 0.8 0.2 -0.8
v 1.3 0.1 -0.8
v 1.3 0.2 -0.8
v 2.8 0.1 -0.8
v 2.8 0.2 -0.8
v -3 0.1 -1.2
v -3 0.2 -1.2
v -1.3 0.1 -1.2
v -1.3 0.2 -1.2
v -1 0.1 -1.2
v -1 0.2 -1.2
v 0.9 0.1 -1.2
v 0.9 0.2 -1.2
v 1.2 0.1 -1.2
v 1.2 0.2 -1.2
v 2.9 0.1 -1.2
v 2.9 0.2 -1.2
v -2.9 0.1 -2.8
v -2.9 0.2 -2.8
v -1.4 0.1 -2.8
v -1.4 0.2 -2.8
v -0.9 0.1 -2.8
v -0.9 0.2 -2.8
v -0.0999999 0.1 -2.8
v -0.0999999 0.2 -2.8
v 0 0.1 -2.8
v 0 0.2 -2.8
v 0.8 0.1 -2.8
v 0.8 0.2 -2.8
v 1.3 0.1 -2.8
v 1.3 0.2 -2.8
v 2.8 0.1 -2.8
v 2.8 0.2 -2.8
v -3.2 0 -3.2
v -3.2 0.2 -3.2
v 3.2 0 -3.2
v 3.2 0.2 -3.2
v -3.2 0 3.2
v 3.2 0 3.2
v -3.2 0 -3.2
v 3.2 0 -3.2
v -3 0.1 3
v -1.3 0.1 3
v -1 0.1 3
v 0.9 0.1 3
v 1.2 0.1 3
v 2.9 0.1 3
v -2.9 0.1 2.9
v -1.4 0.1 2.9
v -0.9 0.1 2.9
v -0.0999999 0.1 2.9
v 0 0.1 2.9
v 0.8 0.1 2.9
v 1.3 0.1 2.9
v 2.8 0.1 2.9
v -2.9 0.1 1.4
v -1.4 0.1 1.4
v -0.9 0.1 1.4
v -0.0999999 0.1 1.4
v 0 0.1 1.4
v 0.8 0.1 1.4
v 1.3 0.1 1.4
v 2.8 0.1 1.4
v -3 0.1 1.3
v -1.3 0.1 1.3
v -1 0.1 1.3
v 0.9 0.1 1.3
v 1.2 0.1 1.3
v 2.9 0.1 1.3
v -3 0.1 1
v -1.3 0.1 1
v -1 0.1 1
v 0.9 0.1 1
v 1.2 0.1 1
v 2.9 0.1 1
v -2.9 0.1 0.9
v -1.4 0.1 0.9
v -0.9 0.1 0.9
v 0.8 0.1 0.9
v 1.3 0.1 0.9
v 2.8 0.1 0.9
v -2.9 0.1 0.0999999
v -1.4 0.1 0.0999999
v 1.3 0.1 0.0999999
v 2.8 0.1 0.0999999
v -2.9 0.1 0
v -1.4 0.1 0
v 1.3 0.1 0
v 2.8 0.1 0
v -2.9 0.1 -0.8
v -1.4 0.1 -0.8
v -0.9 0.1 -0.8
v 0.8 0.1 -0.8
v 1.3 0.1 -0.8
v 2.8 0.1 -0.8
v -3 0.1 -0.9
v -1.3 0.1 -0.9
v -1 0.1 -0.9
v 0.9 0.1 -0.9
v 1.2 0.1 -0.9
v 2.9 0.1 -0.9
v -3 0.1 -1.2
v -1.3 0.1 -1.2
v -1 0.1 -1.2
v 0.9 0.1 -1.2
v 1.2 0.1 -1.2
v 2.9 0.1 -1.2
v -2.9 0.1 -1.3
v -1.4 0.1 -1.3
v -0.9 0.1 -1.3
v -0.0999999 0.1 -1.3
v 0 0.1 -1.3
v 0.8 0.1 -1.3
v 1.3 0.1 -1.3
v 2.8 0.1 -1.3
v -2.9 0.1 -2.8
v -1.4 0.1 -2.8
v -0.9 0.1 -2.8
v -0.0999999 0.1 -2.8
v 0 0.1 -2.8
v 0.8 0.1 -2.8
v 1.3 0.1 -2.8
v 2.8 0.1 -2.8
v -3 0.1 -2.9
v -1.3 0.1 -2.9
v -1 0.1 -2.9
v 0.9 0.1 -2.9
v 1.2 0.1 -2.9
v 2.9 0.1 -2.9
v -3.2 0.2 3.2
v 3.1 0.2 3.2
v 3.2 0.2 3.2
v -3 0.2 3
v -1.3 0.2 3
v -1 0.2 3
v 0.9 0.2 3
v 1.2 0.2 3
v 2.9 0.2 3
v -2.9 0.2 2.9
v -1.4 0.2 2.9
v -0.9 0.2 2.9
v -0.0999999 0.2 2.9
v 0 0.2 2.9
v 0.8 0.2 2.9
v 1.3 0.2 2.9
v 2.8 0.2 2.9
v -2.9 0.2 1.4
v -1.4 0.2 1.4
v -0.9 0.2 1.4
v -0.0999999 0.2 1.4
v 0 0.2 1.4
v 0.8 0.2 1.4
v 1.3 0.2 1.4
v 2.8 0.2 1.4
v -3 0.2 1.3
v -1.3 0.2 1.3
v -1 0.2 1.3
v 0.9 0.2 1.3
v 1.2 0.2 1.3
v 2.9 0.2 1.3
v -3 0.2 1
v -1.3 0.2 1
v -1 0.2 1
v 0.9 0.2 1
v 1.2 0.2 1
v 2.9 0.2 1
v -2.9 0.2 0.9
v -1.4 0.2 0.9
v -0.9 0.2 0.9
v 0.8 0.2 0.9
v 1.3 0.2 0.9
v 2.8 0.2 0.9
v -2.9 0.2 0.0999999
v -1.4 0.2 0.0999999
v 1.3 0.2 0.0999999
v 2.8 0.2 0.0999999
v -2.9 0.2 0
v -1.4 0.2 0
v 1.3 0.2 0
v 2.8 0.2 0
v -2.9 0.2 -0.8
v -1.4 0.2 -0.8
v -0.9 0.2 -0.8
v 0.8 0.2 -0.8
v 1.3 0.2 -0.8
v 2.8 0.2 -0.8
v -3 0.2 -0.9
v -1.3 0.2 -0.9
v -1 0.2 -0.9
v 0.9 0.2 -0.9
v 1.2 0.2 -0.9
v 2.9 0.2 -0.9
v -3 0.2 -1.2
v -1.3 0.2 -1.2
v -1 0.2 -1.2
v 0.9 0.2 -1.2
v 1.2 0.2 -1.2
v 2.9 0.2 -1.2
v -2.9 0.2 -1.3
v -1.4 0.2 -1.3
v -0.9 0.2 -1.3
v -0.0999999 0.2 -1.3
v 0 0.2 -1.3
v 0.8 0.2 -1.3
v 1.3 0.2 -1.3
v 2.8 0.2 -1.3
v -2.9 0.2 -2.8
v -1.4 0.2 -2.8
v -0.9 0.2 -2.8
v -0.0999999 0.2 -2.8
v 0 0.2 -2.8
v 0.8 0.2 -2.8
v 1.3 0.2 -2.8
v 2.8 0.2 -2.8
v -3 0.2 -2.9
v -1.3 0.2 -2.9
v -1 0.2 -2.9
v 0.9 0.2 -2.9
v 1.2 0.2 -2.9
v 2.9 0.2 -2.9
v -3.2 0.2 -3.1
v 3.1 0.2 -3.1
v -3.2 0.2 -3.2
v 3.2 0.2 -3.2

# faces
f 3/1/1 2/1/1 1/1/1
f 4/1/1 2/1/1 3/1/1
f 5/2/1 4/2/1 3/2/1
f 6/1/1 2/1/1 4/1/1
f 6/2/1 4/2/1 5/2/1
f 7/1/1 2/1/1 6/1/1
f 16/3/1 9/3/1 8/3/1
f 17/3/1 9/3/1 16/3/1
f 18/3/1 11/3/1 10/3/1
f 19/3/1 11/3/1 18/3/1
f 20/3/1 13/3/1 12/3/1
f 21/3/1 13/3/1 20/3/1
f 22/3/1 15/3/1 14/3/1
f 23/3/1 15/3/1 22/3/1
f 30/2/1 25/2/1 24/2/1
f 31/2/1 25/2/1 30/2/1
f 32/2/1 27/2/1 26/2/1
f 33/2/1 27/2/1 32/2/1
f 34/2/1 29/2/1 28/2/1
f 35/2/1 29/2/1 34/2/1
f 42/3/1 37/3/1 36/3/1
f 43/3/1 37/3/1 42/3/1
f 44/3/1 39/3/1 38/3/1
f 45/3/1 39/3/1 44/3/1
f 46/3/1 41/3/1 40/3/1
f 47/3/1 41/3/1 46/3/1
f 52/3/1 49/3/1 48/3/1
f 53/3/1 49/3/1 52/3/1
f 54/3/1 51/3/1 50/3/1
f 55/3/1 51/3/1 54/3/1
f 62/2/1 57/2/1 56/2/1
f 63/2/1 57/2/1 62/2/1
f 64/2/1 59/2/1 58/2/1
f 65/2/1 59/2/1 64/2/1
f 66/2/1 61/2/1 60/2/1
f 67/2/1 61/2/1 66/2/1
f 76/3/1 69/3/1 68/3/1
f 77/3/1 69/3/1 76/3/1
f 78/3/1 71/3/1 70/3/1
f 79/3/1 71/3/1 78/3/1
f 80/3/1 73/3/1 72/3/1
f 81/3/1 73/3/1 80/3/1
f 82/3/1 75/3/1 74/3/1
f 83/3/1 75/3/1 82/3/1
f 90/2/1 85/2/1 84/2/1
f 91/2/1 85/2/1 90/2/1
f 92/2/1 87/2/1 86/2/1
f 93/2/1 87/2/1 92/2/1
f 94/2/1 89/2/1 88/2/1
f 95/2/1 89/2/1 94/2/1
f 96/2/2 97/2/2 102/2/2
f 102/2/2 97/2/2 103/2/2
f 98/2/2 99/2/2 104/2/2
f 104/2/2 99/2/2 105/2/2
f 100/2/2 101/2/2 106/2/2
f 106/2/2 101/2/2 107/2/2
f 108/3/2 109/3/2 116/3/2
f 116/3/2 109/3/2 117/3/2
f 110/3/2 111/3/2 118/3/2
f 118/3/2 111/3/2 119/3/2
f 112/3/2 113/3/2 120/3/2
f 120/3/2 113/3/2 121/3/2
f 114/3/2 115/3/2 122/3/2
f 122/3/2 115/3/2 123/3/2
f 124/2/2 125/2/2 130/2/2
f 130/2/2 125/2/2 131/2/2
f 126/2/2 127/2/2 132/2/2
f 132/2/2 127/2/2 133/2/2
f 128/2/2 129/2/2 134/2/2
f 134/2/2 129/2/2 135/2/2
f 136/3/2 137/3/2 140/3/2
f 140/3/2 137/3/2 141/3/2
f 138/3/2 139/3/2 142/3/2
f 142/3/2 139/3/2 143/3/2
f 144/3/2 145/3/2 150/3/2
f 150/3/2 145/3/2 151/3/2
f 146/3/2 147/3/2 152/3/2
f 152/3/2 147/3/2 153/3/2
f 148/3/2 149/3/2 154/3/2
f 154/3/2 149/3/2 155/3/2
f 156/2/2 157/2/2 162/2/2
f 162/2/2 157/2/2 163/2/2
f 158/2/2 159/2/2 164/2/2
f 164/2/2 159/2/2 165/2/2
f 160/2/2 161/2/2 166/2/2
f 166/2/2 161/2/2 167/2/2
f 168/3/2 169/3/2 176/3/2
f 176/3/2 169/3/2 177/3/2
f 170/3/2 171/3/2 178/3/2
f 178/3/2 171/3/2 179/3/2
f 172/3/2 173/3/2 180/3/2
f 180/3/2 173/3/2 181/3/2
f 174/3/2 175/3/2 182/3/2
f 182/3/2 175/3/2 183/3/2
f 184/1/2 185/1/2 186/1/2
f 186/1/2 185/1/2 187/1/2
f 191/1/3 189/1/3 188/1/3
f 191/2/3 190/2/3 189/2/3
f 192/2/3 190/2/3 191/2/3
f 193/1/3 191/1/3 188/1/3
f 193/1/3 192/1/3 191/1/3
f 194/1/3 192/1/3 193/1/3
f 197/3/3 196/3/3 195/3/3
f 198/3/3 196/3/3 197/3/3
f 201/3/3 200/3/3 199/3/3
f 202/3/3 200/3/3 201/3/3
f 205/3/3 204/3/3 203/3/3
f 206/3/3 204/3/3 205/3/3
f 209/3/3 208/3/3 207/3/3
f 210/3/3 208/3/3 209/3/3
f 213/2/3 212/2/3 211/2/3
f 214/2/3 212/2/3 213/2/3
f 217/2/3 216/2/3 215/2/3
f 218/2/3 216/2/3 217/2/3
f 221/2/3 220/2/3 219/2/3
f 222/2/3 220/2/3 221/2/3
f 225/3/3 224/3/3 223/3/3
f 226/3/3 224/3/3 225/3/3
f 229/3/3 228/3/3 227/3/3
f 230/3/3 228/3/3 229/3/3
f 233/3/3 232/3/3 231/3/3
f 234/3/3 232/3/3 233/3/3
f 237/3/3 236/3/3 235/3/3
f 238/3/3 236/3/3 237/3/3
f 241/3/3 240/3/3 239/3/3
f 242/3/3 240/3/3 241/3/3
f 245/2/3 244/2/3 243/2/3
f 246/2/3 244/2/3 245/2/3
f 249/2/3 248/2/3 247/2/3
f 250/2/3 248/2/3 249/2/3
f 253/2/3 252/2/3 251/2/3
f 254/2/3 252/2/3 253/2/3
f 257/3/3 256/3/3 255/3/3
f 258/3/3 256/3/3 257/3/3
f 261/3/3 260/3/3 259/3/3
f 262/3/3 260/3/3 261/3/3
f 265/3/3 264/3/3 263/3/3
f 266/3/3 264/3/3 265/3/3
f 269/3/3 268/3/3 267/3/3
f 270/3/3 268/3/3 269/3/3
f 273/2/3 272/2/3 271/2/3
f 274/2/3 272/2/3 273/2/3
f 277/2/3 276/2/3 275/2/3
f 278/2/3 276/2/3 277/2/3
f 281/2/3 280/2/3 279/2/3
f 282/2/3 280/2/3 281/2/3
f 283/2/4 284/2/4 285/2/4
f 285/2/4 284/2/4 286/2/4
f 287/2/4 288/2/4 289/2/4
f 289/2/4 288/2/4 290/2/4
f 291/2/4 292/2/4 293/2/4
f 293/2/4 292/2/4 294/2/4
f 295/3/4 296/3/4 297/3/4
f 297/3/4 296/3/4 298/3/4
f 299/3/4 300/3/4 301/3/4
f 301/3/4 300/3/4 302/3/4
f 303/3/4 304/3/4 305/3/4
f 305/3/4 304/3/4 306/3/4
f 307/3/4 308/3/4 309/3/4
f 309/3/4 308/3/4 310/3/4
f 311/2/4 312/2/4 313/2/4
f 313/2/4 312/2/4 314/2/4
f 315/2/4 316/2/4 317/2/4
f 317/2/4 316/2/4 318/2/4
f 319/2/4 320/2/4 321/2/4
f 321/2/4 320/2/4 322/2/4
f 323/3/4 324/3/4 325/3/4
f 325/3/4 324/3/4 326/3/4
f 327/3/4 328/3/4 329/3/4
f 329/3/4 328/3/4 330/3/4
f 331/3/4 332/3/4 333/3/4
f 333/3/4 332/3/4 334/3/4
f 335/3/4 336/3/4 337/3/4
f 337/3/4 336/3/4 338/3/4
f 339/3/4 340/3/4 341/3/4
f 341/3/4 340/3/4 342/3/4
f 343/2/4 344/2/4 345/2/4
f 345/2/4 344/2/4 346/2/4
f 347/2/4 348/2/4 349/2/4
f 349/2/4 348/2/4 350/2/4
f 351/2/4 352/2/4 353/2/4
f 353/2/4 352/2/4 354/2/4
f 355/3/4 356/3/4 357/3/4
f 357/3/4 356/3/4 358/3/4
f 359/3/4 360/3/4 361/3/4
f 361/3/4 360/3/4 362/3/4
f 363/3/4 364/3/4 365/3/4
f 365/3/4 364/3/4 366/3/4
f 367/3/4 368/3/4 369/3/4
f 369/3/4 368/3/4 370/3/4
f 371/1/4 372/1/4 373/1/4
f 373/1/4 372/1/4 374/1/4
f 377/1/5 376/1/5 375/1/5
f 378/1/5 376/1/5 377/1/5
f 379/1/6 380/1/6 385/1/6
f 385/1/6 380/1/6 386/1/6
f 381/1/6 382/1/6 387/1/6
f 387/1/6 382/1/6 388/1/6
f 388/1/6 382/1/6 389/1/6
f 389/1/6 382/1/6 390/1/6
f 383/1/6 384/1/6 391/1/6
f 391/1/6 384/1/6 392/1/6
f 379/1/6 385/1/6 393/1/6
f 386/1/6 380/1/6 394/1/6
f 381/1/6 387/1/6 395/1/6
f 388/1/6 389/1/6 396/1/6
f 396/1/6 389/1/6 397/1/6
f 390/1/6 382/1/6 398/1/6
f 383/1/6 391/1/6 399/1/6
f 392/1/6 384/1/6 400/1/6
f 379/1/6 393/1/6 401/1/6
f 393/1/6 394/1/6 401/1/6
f 394/1/6 380/1/6 402/1/6
f 401/1/6 394/1/6 402/1/6
f 396/1/6 397/1/6 403/1/6
f 397/1/6 398/1/6 403/1/6
f 381/1/6 395/1/6 403/1/6
f 395/1/6 396/1/6 403/1/6
f 398/1/6 382/1/6 404/1/6
f 403/1/6 398/1/6 404/1/6
f 399/1/6 400/1/6 405/1/6
f 383/1/6 399/1/6 405/1/6
f 400/1/6 384/1/6 406/1/6
f 405/1/6 400/1/6 406/1/6
f 407/1/6 408/1/6 413/1/6
f 413/1/6 408/1/6 414/1/6
f 409/1/6 410/1/6 415/1/6
f 415/1/6 410/1/6 416/1/6
f 411/1/6 412/1/6 417/1/6
f 417/1/6 412/1/6 418/1/6
f 407/1/6 413/1/6 419/1/6
f 414/1/6 408/1/6 420/1/6
f 411/1/6 417/1/6 421/1/6
f 418/1/6 412/1/6 422/1/6
f 407/1/6 419/1/6 423/1/6
f 419/1/6 420/1/6 423/1/6
f 420/1/6 408/1/6 424/1/6
f 423/1/6 420/1/6 424/1/6
f 421/1/6 422/1/6 425/1/6
f 411/1/6 421/1/6 425/1/6
f 422/1/6 412/1/6 426/1/6
f 425/1/6 422/1/6 426/1/6
f 407/1/6 423/1/6 427/1/6
f 424/1/6 408/1/6 428/1/6
f 409/1/6 415/1/6 429/1/6
f 416/1/6 410/1/6 430/1/6
f 411/1/6 425/1/6 431/1/6
f 426/1/6 412/1/6 432/1/6
f 407/1/6 427/1/6 433/1/6
f 427/1/6 428/1/6 433/1/6
f 428/1/6 408/1/6 434/1/6
f 433/1/6 428/1/6 434/1/6
f 409/1/6 429/1/6 435/1/6
f 429/1/6 430/1/6 435/1/6
f 430/1/6 410/1/6 436/1/6
f 435/1/6 430/1/6 436/1/6
f 431/1/6 432/1/6 437/1/6
f 411/1/6 431/1/6 437/1/6
f 432/1/6 412/1/6 438/1/6
f 437/1/6 432/1/6 438/1/6
f 439/1/6 440/1/6 445/1/6
f 445/1/6 440/1/6 446/1/6
f 441/1/6 442/1/6 447/1/6
f 447/1/6 442/1/6 448/1/6
f 448/1/6 442/1/6 449/1/6
f 449/1/6 442/1/6 450/1/6
f 443/1/6 444/1/6 451/1/6
f 451/1/6 444/1/6 452/1/6
f 439/1/6 445/1/6 453/1/6
f 446/1/6 440/1/6 454/1/6
f 441/1/6 447/1/6 455/1/6
f 448/1/6 449/1/6 456/1/6
f 456/1/6 449/1/6 457/1/6
f 450/1/6 442/1/6 458/1/6
f 443/1/6 451/1/6 459/1/6
f 452/1/6 444/1/6 460/1/6
f 439/1/6 453/1/6 461/1/6
f 453/1/6 454/1/6 461/1/6
f 454/1/6 440/1/6 462/1/6
f 461/1/6 454/1/6 462/1/6
f 456/1/6 457/1/6 463/1/6
f 457/1/6 458/1/6 463/1/6
f 441/1/6 455/1/6 463/1/6
f 455/1/6 456/1/6 463/1/6
f 458/1/6 442/1/6 464/1/6
f 463/1/6 458/1/6 464/1/6
f 459/1/6 460/1/6 465/1/6
f 443/1/6 459/1/6 465/1/6
f 460/1/6 444/1/6 466/1/6
f 465/1/6 460/1/6 466/1/6
f 467/2/6 468/2/6 470/2/6
f 470/2/6 468/2/6 471/2/6
f 471/2/6 468/2/6 472/2/6
f 472/2/6 468/2/6 473/2/6
f 473/2/6 468/2/6 474/2/6
f 474/2/6 468/2/6 475/2/6
f 476/3/6 477/3/6 484/3/6
f 484/3/6 477/3/6 485/3/6
f 478/3/6 479/3/6 486/3/6
f 486/3/6 479/3/6 487/3/6
f 480/3/6 481/3/6 488/3/6
f 488/3/6 481/3/6 489/3/6
f 482/3/6 483/3/6 490/3/6
f 490/3/6 483/3/6 491/3/6
f 467/2/6 470/2/6 492/2/6
f 471/2/6 472/2/6 493/2/6
f 493/2/6 472/2/6 494/2/6
f 473/2/6 474/2/6 495/2/6
f 495/2/6 474/2/6 496/2/6
f 475/2/6 468/2/6 497/2/6
f 495/2/6 496/2/6 498/2/6
f 496/2/6 497/2/6 498/2/6
f 494/2/6 495/2/6 498/2/6
f 467/2/6 492/2/6 498/2/6
f 493/2/6 494/2/6 498/2/6
f 492/2/6 493/2/6 498/2/6
f 498/2/6 497/2/6 499/2/6
f 499/2/6 497/2/6 500/2/6
f 500/2/6 497/2/6 501/2/6
f 501/2/6 497/2/6 502/2/6
f 497/2/6 468/2/6 503/2/6
f 502/2/6 497/2/6 503/2/6
f 504/3/6 505/3/6 510/3/6
f 510/3/6 505/3/6 511/3/6
f 508/3/6 509/3/6 512/3/6
f 512/3/6 509/3/6 513/3/6
f 514/3/6 515/3/6 518/3/6
f 518/3/6 515/3/6 519/3/6
f 506/3/6 507/3/6 520/3/6
f 520/3/6 507/3/6 521/3/6
f 516/3/6 517/3/6 522/3/6
f 522/3/6 517/3/6 523/3/6
f 467/2/6 498/2/6 524/2/6
f 499/2/6 500/2/6 525/2/6
f 525/2/6 500/2/6 526/2/6
f 501/2/6 502/2/6 527/2/6
f 527/2/6 502/2/6 528/2/6
f 503/2/6 468/2/6 529/2/6
f 525/2/6 526/2/6 530/2/6
f 528/2/6 529/2/6 530/2/6
f 527/2/6 528/2/6 530/2/6
f 526/2/6 527/2/6 530/2/6
f 524/2/6 525/2/6 530/2/6
f 467/2/6 524/2/6 530/2/6
f 530/2/6 529/2/6 531/2/6
f 531/2/6 529/2/6 532/2/6
f 532/2/6 529/2/6 533/2/6
f 533/2/6 529/2/6 534/2/6
f 529/2/6 468/2/6 535/2/6
f 534/2/6 529/2/6 535/2/6
f 536/3/6 537/3/6 544/3/6
f 544/3/6 537/3/6 545/3/6
f 538/3/6 539/3/6 546/3/6
f 546/3/6 539/3/6 547/3/6
f 540/3/6 541/3/6 548/3/6
f 548/3/6 541/3/6 549/3/6
f 542/3/6 543/3/6 550/3/6
f 550/3/6 543/3/6 551/3/6
f 467/2/6 530/2/6 552/2/6
f 531/2/6 532/2/6 553/2/6
f 553/2/6 532/2/6 554/2/6
f 533/2/6 534/2/6 555/2/6
f 555/2/6 534/2/6 556/2/6
f 535/2/6 468/2/6 557/2/6
f 553/2/6 554/2/6 558/2/6
f 556/2/6 557/2/6 558/2/6
f 555/2/6 556/2/6 558/2/6
f 554/2/6 555/2/6 558/2/6
f 467/2/6 552/2/6 558/2/6
f 552/2/6 553/2/6 558/2/6
f 468/1/6 469/1/6 559/1/6
f 558/2/6 557/2/6 559/2/6
f 557/2/6 468/2/6 559/2/6
f 558/1/6 559/1/6 560/1/6
f 559/1/6 469/1/6 561/1/6
f 560/1/6 559/1/6 561/1/6
